<svg width="464" height="446" viewBox="0 0 464 446" fill="none" xmlns="http://www.w3.org/2000/svg">
<g clip-path="url(#clip0_22_18)">
<path d="M463.024 230.389C461.924 245.089 461.024 259.989 459.724 274.789C458.524 288.289 456.524 301.789 452.324 314.789C445.424 336.089 433.924 354.789 419.624 371.889C403.324 391.389 382.824 404.789 359.124 413.689C341.824 420.089 324.124 424.989 306.324 429.489C290.424 433.489 274.324 436.389 258.224 439.589C248.524 441.489 238.924 443.389 229.124 444.089C221.724 444.689 214.324 445.289 206.824 444.389C199.224 443.389 191.924 441.689 184.924 438.589C183.224 437.789 181.424 436.989 179.724 436.189C168.024 431.189 157.724 424.289 148.324 415.789C143.624 411.489 139.124 407.089 135.324 401.989C134.524 400.889 133.624 399.889 132.924 398.689C128.524 390.989 123.824 383.389 120.224 375.289C117.524 369.189 115.624 362.889 114.924 356.189C113.724 345.089 112.624 334.089 113.124 322.889C113.724 311.189 115.524 299.689 118.324 288.289C121.624 274.989 125.324 261.889 128.824 248.689C131.624 237.989 134.424 227.189 135.924 216.089C136.824 209.689 137.424 203.189 137.624 196.789C137.824 188.089 137.524 179.389 137.324 170.589C137.124 159.889 137.424 149.189 139.424 138.589C144.024 114.089 156.324 94.0889 175.424 78.2889C188.424 67.4889 203.324 60.3889 219.724 56.1889C238.624 51.2889 257.824 49.3889 277.124 50.8889C292.324 51.9889 307.224 55.0889 321.724 59.8889C345.424 67.7889 368.524 77.1889 390.624 88.7889C400.524 93.9889 409.824 100.089 418.424 107.089C436.824 122.189 448.824 141.389 455.524 164.089C461.424 183.889 463.924 204.089 463.024 224.789C462.924 226.589 463.024 228.489 463.024 230.389Z" fill="#091B36"/>
<mask id="mask0_22_18" style="mask-type:alpha" maskUnits="userSpaceOnUse" x="113" y="50" width="351" height="395">
<path d="M463.024 230.389C461.924 245.089 461.024 259.989 459.724 274.789C458.524 288.289 456.524 301.789 452.324 314.789C445.424 336.089 433.924 354.789 419.624 371.889C403.324 391.389 382.824 404.789 359.124 413.689C341.824 420.089 324.124 424.989 306.324 429.489C290.424 433.489 274.324 436.389 258.224 439.589C248.524 441.489 238.924 443.389 229.124 444.089C221.724 444.689 214.324 445.289 206.824 444.389C199.224 443.389 191.924 441.689 184.924 438.589C183.224 437.789 181.424 436.989 179.724 436.189C168.024 431.189 157.724 424.289 148.324 415.789C143.624 411.489 139.124 407.089 135.324 401.989C134.524 400.889 133.624 399.889 132.924 398.689C128.524 390.989 123.824 383.389 120.224 375.289C117.524 369.189 115.624 362.889 114.924 356.189C113.724 345.089 112.624 334.089 113.124 322.889C113.724 311.189 115.524 299.689 118.324 288.289C121.624 274.989 125.324 261.889 128.824 248.689C131.624 237.989 134.424 227.189 135.924 216.089C136.824 209.689 137.424 203.189 137.624 196.789C137.824 188.089 137.524 179.389 137.324 170.589C137.124 159.889 137.424 149.189 139.424 138.589C144.024 114.089 156.324 94.0889 175.424 78.2889C188.424 67.4889 203.324 60.3889 219.724 56.1889C238.624 51.2889 257.824 49.3889 277.124 50.8889C292.324 51.9889 307.224 55.0889 321.724 59.8889C345.424 67.7889 368.524 77.1889 390.624 88.7889C400.524 93.9889 409.824 100.089 418.424 107.089C436.824 122.189 448.824 141.389 455.524 164.089C461.424 183.889 463.924 204.089 463.024 224.789C462.924 226.589 463.024 228.489 463.024 230.389Z" fill="black"/>
</mask>
<g mask="url(#mask0_22_18)">
<path fill-rule="evenodd" clip-rule="evenodd" d="M230.824 110.689C230.824 106.589 231.624 103.089 233.624 99.9887C234.524 98.5887 235.824 97.1887 237.224 96.1887C239.224 94.7887 242.124 95.1887 243.524 97.3887C243.824 97.8887 244.524 98.2887 245.124 98.5887C245.446 98.7729 245.79 98.9148 246.125 99.0532C246.518 99.2154 246.9 99.3729 247.224 99.5887C251.824 102.689 254.324 110.489 252.424 115.589C250.724 120.189 244.724 123.989 239.924 123.489C237.124 123.189 235.024 121.689 233.424 119.389C231.624 116.689 230.824 113.589 230.824 110.689ZM313.924 110.189C309.624 113.189 308.124 117.589 308.024 122.589C308.024 125.289 308.624 127.789 309.724 130.289C311.624 134.089 315.124 135.989 319.324 135.489C323.624 134.989 327.024 132.889 329.724 129.689C336.824 121.089 331.424 110.389 322.024 108.389C319.024 107.789 316.424 108.389 313.924 110.189ZM358.024 179.889C358.124 174.989 359.524 170.489 362.324 166.389C363.524 164.689 364.924 163.189 366.824 162.189C368.324 161.389 369.724 160.989 371.424 161.789C371.924 161.989 372.524 162.089 373.024 162.089C379.424 162.489 384.424 167.289 385.024 173.689C385.524 179.289 383.524 184.089 379.524 187.889C376.924 190.389 373.824 191.989 370.324 192.689C366.524 193.389 363.424 192.089 361.024 189.089C358.824 186.389 357.924 183.289 358.024 179.889ZM300.424 355.689C300.324 352.189 301.124 348.189 303.124 344.489C303.631 343.474 304.495 342.532 305.294 341.66C305.44 341.501 305.584 341.343 305.724 341.189C306.624 340.189 307.624 339.289 308.624 338.389C312.824 334.289 318.124 334.589 321.624 339.289C323.224 341.389 324.724 343.689 323.724 346.589C323.601 346.897 323.667 347.242 323.736 347.603C323.779 347.828 323.824 348.058 323.824 348.289C324.324 354.889 322.024 360.489 317.524 365.289C315.724 367.189 313.524 368.389 310.924 369.089C306.924 370.189 303.624 368.589 301.824 364.889C300.624 361.989 300.324 359.189 300.424 355.689ZM386.554 242.927C386.514 243.585 386.472 244.27 386.424 244.989C386.432 245.068 386.44 245.151 386.448 245.237C386.456 245.324 386.464 245.414 386.473 245.507L386.476 245.54V245.547L386.477 245.552C386.564 246.505 386.676 247.715 386.924 248.789C387.924 253.689 391.624 256.689 396.624 256.789C400.124 256.889 403.124 255.689 405.624 253.389C410.224 249.089 412.324 243.789 411.724 237.489C411.024 230.989 406.124 226.789 399.224 226.689C392.824 226.589 387.824 230.889 387.024 237.189C386.796 239.014 386.683 240.838 386.554 242.927ZM192.824 310.289C192.824 314.989 191.824 319.289 189.324 323.189C188.824 323.889 188.324 324.589 187.724 325.289C181.724 332.089 173.924 328.889 171.024 323.189C169.124 319.389 168.824 315.389 169.824 311.289C169.893 311.03 169.962 310.773 170.03 310.519L170.033 310.511L170.033 310.508C170.361 309.295 170.676 308.126 170.924 306.889C171.824 303.389 173.624 300.389 176.624 298.289C181.324 294.889 186.924 295.889 190.224 300.689C192.224 303.489 192.724 306.889 192.824 310.289ZM194.824 373.889C192.824 378.389 191.724 383.289 191.524 386.989C191.424 391.189 191.924 394.089 193.624 396.589C195.824 399.789 199.224 401.089 203.024 400.389C206.024 399.889 208.324 398.189 210.224 395.989C216.124 389.189 217.224 378.889 209.824 370.689C207.624 368.189 204.424 367.589 201.324 368.889C201.207 368.947 201.082 369.022 200.953 369.1C200.641 369.288 200.307 369.489 200.024 369.489C197.124 369.689 195.824 371.589 194.824 373.889ZM321.424 280.889C321.624 276.989 323.124 272.789 325.924 268.989C327.224 267.189 328.724 265.689 331.224 265.889C331.677 265.889 332.187 265.604 332.667 265.335C332.823 265.248 332.977 265.162 333.124 265.089C336.424 263.489 339.524 263.889 342.124 266.489C345.424 269.889 346.524 273.989 345.924 278.589C345.524 281.889 344.424 284.989 342.624 287.789C340.424 291.289 337.224 293.489 333.224 294.189C329.624 294.889 326.624 293.689 324.324 290.789C322.224 288.189 321.424 285.089 321.424 280.889ZM221.149 242.376C221.076 242.918 221.003 243.457 220.924 243.989C221.224 248.389 221.924 252.689 224.224 256.489C225.224 258.289 226.524 259.789 229.024 258.989C229.157 258.922 229.379 258.944 229.601 258.966C229.713 258.978 229.824 258.989 229.924 258.989C233.324 259.489 236.024 257.989 238.124 255.489C241.924 250.889 243.424 245.589 243.124 239.689C243.024 237.489 242.524 235.289 241.424 233.289C238.324 227.589 232.524 226.289 227.324 230.189C224.724 232.189 222.724 234.689 221.924 237.889C221.557 239.357 221.351 240.879 221.149 242.376ZM268.924 305.989C268.824 310.789 267.124 315.089 263.624 318.489C262.824 319.289 261.924 319.989 261.024 320.589C255.324 324.089 249.324 321.889 247.224 315.489C246.224 312.389 246.024 309.189 246.724 305.989C247.204 303.589 247.94 301.189 248.676 298.789C248.86 298.189 249.044 297.589 249.224 296.989C249.424 296.289 249.824 295.689 250.224 295.089C252.524 291.289 255.124 290.589 259.124 292.489C259.403 292.609 259.683 292.744 259.969 292.883L259.97 292.884L259.972 292.885L259.974 292.886H259.975C260.403 293.094 260.845 293.309 261.324 293.489C264.224 294.389 266.124 296.289 267.424 298.889C268.524 301.089 269.024 303.489 268.924 305.989ZM165.124 224.689C165.124 221.989 165.424 219.389 166.524 216.989C168.024 213.289 170.824 211.389 174.824 211.089C184.924 210.489 190.124 220.689 187.124 228.489C186.624 229.689 186.024 230.789 185.324 231.789C183.924 233.689 182.424 235.589 180.924 237.389C177.424 241.589 173.524 241.189 169.824 237.289C166.224 233.589 165.224 229.389 165.124 224.689ZM262.324 186.789C269.224 185.389 274.124 179.489 274.124 172.489C274.124 168.789 272.924 164.989 271.124 162.289C267.824 157.689 262.424 156.589 257.624 159.689C255.124 161.289 253.424 163.489 252.524 166.189C251.324 169.789 251.324 173.389 252.424 176.989C253.424 180.089 254.924 182.889 257.324 185.089C258.724 186.389 260.324 187.189 262.324 186.789ZM379.324 306.289C373.924 309.289 371.224 314.089 370.924 320.189C370.824 323.889 372.524 326.589 375.324 328.789C377.624 330.589 380.124 331.289 382.924 330.789C390.624 329.389 396.024 320.589 393.824 313.089C391.924 306.489 384.924 303.089 379.324 306.289ZM208.224 156.889C208.224 162.289 203.924 166.789 198.224 167.389C193.124 167.989 188.324 164.489 187.324 159.289C186.424 154.589 187.224 149.989 189.824 145.889C190.624 144.689 191.824 143.589 193.024 142.689C194.524 141.689 196.124 141.689 197.724 142.889C198.624 143.589 199.574 144.264 200.524 144.939C201.474 145.614 202.424 146.289 203.324 146.989C206.524 149.589 208.024 152.989 208.224 156.889ZM301.524 210.589C298.924 213.289 297.824 216.489 297.824 220.189C297.824 224.289 299.524 228.189 302.024 230.389C304.924 232.889 308.624 233.089 311.124 230.489C313.024 228.589 314.624 226.389 316.024 224.089C317.724 221.289 317.824 218.089 317.124 214.989C316.324 211.489 314.324 208.889 310.724 207.889C307.224 206.989 304.024 207.989 301.524 210.589Z" fill="#FBE8DE"/>
</g>
</g>
<path d="M138.832 85.8946C139.071 84.8929 139.271 84.0781 139.428 83.2025C140.175 78.6366 139.974 74.151 139.279 69.5489C138.28 63.1445 136.38 57.3804 134.029 51.936C130.127 42.9657 125.164 35.3865 119.55 28.9416C111.234 19.3661 102.034 12.5502 92.0293 8.24341C86.4073 5.85192 80.7515 4.39635 74.9448 4.68946C72.8446 4.79025 70.788 5.20195 68.7327 5.73834C67.5401 6.07192 66.3941 6.96588 65.2464 7.73506C64.8363 7.99201 64.4267 8.24887 64.0929 7.75613C63.8838 7.32353 63.6723 6.64147 63.6682 6.14264C63.6997 4.95734 64.2292 4.13702 64.8852 3.75089C66.196 2.85393 67.4649 1.77066 68.8626 1.37103C71.1224 0.643824 73.426 0.227622 75.7738 0.122337C80.2196 -0.333017 84.7166 0.520111 89.096 2.06138C104.383 7.51884 117.776 18.3112 128.993 35.1295C133.996 42.6456 138.102 51.1757 140.695 61.1676C142.948 69.9184 143.883 78.6939 141.568 87.965C142.024 88.3927 142.48 88.6969 142.895 89.0629C148.326 93.3915 153.517 98.4715 158.18 104.622C162.718 110.588 166.685 117.313 169.387 125.494C170.232 128.098 170.913 130.829 171.429 133.563C173.803 147.051 170.436 158.835 162.416 165.716C159.511 168.201 156.392 169.755 153.147 170.874C146.819 172.985 140.394 173.228 133.962 172.597C132.189 172.442 130.456 172.1 128.642 171.883C128.271 171.827 127.941 171.833 127.405 171.781C127.577 172.651 127.707 173.459 127.836 174.143C129.165 180.666 129.795 187.389 129.232 194.196C128.558 202.689 126.268 210.026 122.03 215.841C119.503 219.254 116.679 221.613 113.479 223.293C108.432 225.942 103.206 226.598 97.8884 226.259C97.1876 226.209 96.4867 226.159 95.6618 226.05C95.6688 226.923 95.7165 227.732 95.7223 228.481C95.9478 236.084 94.9335 243.211 91.9349 249.502C89.7881 254.093 86.9305 257.388 83.6132 259.88C79.3539 263.075 74.8755 264.592 70.1839 265.177C63.681 266.043 57.2475 265.163 50.8856 263.035C50.3904 262.919 49.8532 262.742 49.2339 262.566C49.2829 263.5 49.3295 264.185 49.3772 264.995C50.0193 273.215 50.4148 281.438 49.986 289.677C49.8101 293.485 49.4279 297.232 48.9636 300.982C48.656 303.732 47.9773 306.426 46.9251 308.814C46.1567 310.636 45.4214 311.398 44.2708 311.793C44.2702 311.669 44.2271 311.483 44.2271 311.483C45.5723 309.649 46.1707 307.207 46.6035 304.642C47.2723 300.702 47.4879 296.707 47.538 292.715C47.704 282.486 47.1279 272.27 46.1817 262.123C46.1392 261.937 46.0967 261.75 46.0518 261.314C45.6795 261.134 45.2659 260.893 44.8109 260.714C33.8122 255.677 23.7788 247.753 14.875 236.817C10.1326 231.043 5.91898 224.447 2.88851 216.396C1.79464 213.548 0.988564 210.632 0.427704 207.462C0.0376012 205.037 -0.105364 202.608 0.0811818 200.172C0.573413 194.739 2.52084 190.961 5.88367 189.029C8.2212 187.677 10.6103 187.633 13.0859 188.087C18.1608 189.055 22.6753 192.027 26.87 196.254C36.1746 205.811 42.417 218.854 45.4727 235.198C46.6781 241.661 47.4325 248.444 48.3915 255.036C48.4795 255.783 48.568 256.53 48.6566 257.277C48.822 257.398 48.9053 257.521 49.0294 257.581C56.5909 260.373 64.2636 261.605 72.0377 260.03C76.4386 259.138 80.586 257.379 84.3886 253.755C90.6433 247.717 93.6105 237.436 92.4447 225.61C92.0316 225.493 91.4951 225.315 90.9993 225.2C81.2164 222.822 72.033 218.126 63.5255 210.362C59.9979 207.122 56.7144 203.503 53.9174 198.877C52.289 196.225 50.7836 193.384 49.9324 190.033C49.4233 188.171 49.0364 186.121 48.938 184.127C48.6542 179.518 50.1894 175.749 52.9747 173.702C54.5728 172.613 56.2582 172.146 57.9885 172.114C60.9539 172.06 63.8453 173.004 66.6179 174.513C73.1551 178.01 78.7625 183.707 83.6004 191.101C89.022 199.358 92.9708 208.889 94.8747 220.327C94.9172 220.514 94.9597 220.7 95.0454 221.072C95.4165 221.128 95.8295 221.245 96.2007 221.301C100.53 221.783 104.896 221.578 109.169 220.129C112.497 219.008 115.572 217.143 118.349 214.099C122.148 209.977 124.534 204.384 125.592 197.567C126.456 192.314 126.496 186.95 125.794 181.6C125.399 178.553 124.758 175.633 124.24 172.65C124.023 171.344 123.483 170.793 122.575 170.56C116.383 169.051 110.35 166.792 104.435 163.845C95.378 159.458 86.5996 153.882 78.5045 146.235C74.5609 142.503 70.9022 138.331 67.7708 133.088C66.2252 130.434 64.8841 127.591 64.1564 124.174C63 118.646 64.4867 113.942 68.0539 111.819C69.0379 111.177 70.1058 110.784 71.176 110.639C72.8632 110.421 74.5108 110.391 76.1607 110.61C79.831 111.105 83.4274 112.598 86.8629 114.593C98.9476 121.481 109.291 132.204 117.692 147.203C120.785 152.759 123.429 158.884 125.46 165.456C125.755 166.387 126.049 167.066 126.873 167.177C133.475 168.428 140.031 169.118 146.656 168.062C150.442 167.494 154.141 166.429 157.667 164.369C159.718 163.209 161.684 161.677 163.398 159.65C167.848 154.518 169.771 147.748 169.333 139.338C168.997 133.296 167.429 127.899 165.329 122.825C162.515 116.079 158.886 110.471 154.767 105.495C150.524 100.335 145.958 96.0536 141.108 92.3387C140.859 92.0935 140.611 91.9736 140.281 91.8546C140.036 92.2329 139.791 92.4868 139.629 92.8642C137.52 97.0183 134.866 99.997 131.625 101.74C129.492 102.902 127.275 103.939 125.055 104.479C115.556 106.711 106.394 104.633 97.6123 98.6831C95.5825 97.2855 93.632 95.5131 92.0474 93.172C91.5475 92.433 91.0471 91.6941 90.5874 90.8917C87.8684 85.7658 88.5652 80.1409 92.1627 76.5838C93.6751 75.1218 95.3576 74.2806 97.0839 73.7498C99.7952 72.8274 102.596 72.6511 105.439 72.7868C112.569 73.0928 119.508 75.3352 126.251 78.7662C130.015 80.6312 133.66 83.0588 137.343 85.1733C137.879 85.2262 138.335 85.5295 138.832 85.8946ZM45.7617 255.958C45.4529 253.406 45.1884 251.167 44.8814 248.864C43.8747 241.463 42.745 234.125 40.6716 227.241C36.6523 214.033 30.5951 203.606 22.1761 196.589C19.065 193.964 15.7145 192.217 12.1269 191.846C10.395 191.629 8.70661 191.721 7.0252 192.688C4.647 194.103 3.18395 196.624 3.00934 200.556C2.94188 202.427 2.95778 204.422 3.34293 206.224C3.85812 208.833 4.53806 211.44 5.42249 213.856C7.94878 220.668 11.4546 226.341 15.3673 231.383C23.9011 242.389 33.6047 250.318 44.2749 255.486C44.688 255.603 45.1418 255.657 45.7617 255.958ZM122.413 165.761C122.243 165.141 122.199 164.83 122.074 164.521C120.387 159.688 118.415 155.171 116.157 150.973C110.386 140.353 103.438 131.812 95.5161 125.16C90.1662 120.706 84.6176 117.191 78.5895 115.554C76.6489 115.029 74.6291 114.879 72.6517 114.915C71.4161 114.937 70.1845 115.459 68.9954 116.166C67.2733 117.195 66.6726 119.389 67.1468 122.062C67.3636 123.367 67.7434 124.545 68.206 125.721C69.5104 129.127 71.3042 131.901 73.2606 134.421C76.2166 138.296 79.4156 141.667 82.8582 144.535C94.9289 154.852 107.878 161.538 121.464 165.591C121.67 165.65 121.959 165.708 122.413 165.761ZM91.9495 220.318C91.8621 219.697 91.858 219.198 91.731 218.764C91.2201 216.653 90.8315 214.477 90.1976 212.432C86.5564 200.151 80.7544 190.717 73.2821 183.62C69.6293 180.194 65.8191 177.645 61.5668 176.539C59.6262 176.013 57.6885 175.861 55.7164 176.521C52.5122 177.702 51.1792 181.03 52.042 185.878C52.5162 188.551 53.5241 190.903 54.6538 193.064C57.0814 197.884 60.242 201.567 63.6047 204.811C71.9911 212.888 81.1756 217.709 90.9183 220.15C91.1665 220.271 91.4956 220.265 91.9495 220.318ZM137.584 89.5963C137.211 89.2912 136.962 89.047 136.755 88.8636C128.512 83.3401 119.951 79.1939 110.997 77.4242C107.242 76.6817 103.49 76.314 99.7061 77.1314C98.0195 77.4744 96.2945 78.1296 94.7372 79.1551C91.3762 81.3366 90.9946 85.0851 93.5394 89.0919C95.1666 91.6191 97.1165 93.3915 99.229 94.7874C107.057 99.9441 115.188 101.853 123.663 100.327C126.789 99.7713 129.787 98.5315 132.57 96.2353C134.494 94.6419 136.166 92.553 137.584 89.5963Z" fill="white"/>
<defs>
<clipPath id="clip0_22_18">
<rect width="351" height="395" fill="white" transform="translate(113 50.3882)"/>
</clipPath>
</defs>
</svg>
