<svg width="224" height="204" viewBox="0 0 224 204" fill="none" xmlns="http://www.w3.org/2000/svg">
<g clip-path="url(#clip0_1_1085)">
<path d="M99.0633 203.018C93.8521 202.728 89.2199 200.991 85.4563 197.228C83.1402 194.912 80.9689 192.306 79.087 189.411C72.573 179.423 65.7695 169.724 57.5184 161.039C57.3737 160.894 57.3737 160.894 57.2289 160.749C42.0295 141.497 26.2511 122.678 12.2098 102.557C7.28812 95.464 3.95874 87.792 1.06362 79.541C-0.818203 74.04 -0.23918 68.684 3.0902 63.9075C5.11679 61.0124 7.57764 58.2621 10.328 56.0907C29.291 40.8913 46.8065 24.0997 64.7562 7.5975C77.0605 -3.5487 89.6542 -14.2606 102.248 -24.9726C105.288 -27.5782 108.617 -30.039 112.091 -32.0656C121.645 -37.8558 131.199 -37.2768 139.74 -30.1838C143.503 -27.1439 146.833 -23.525 149.728 -19.6166C161.308 -4.4172 171.731 11.5059 181.429 28.0081C187.22 37.8515 193.299 47.6949 199.379 57.2488C206.038 67.671 212.118 78.528 217.329 89.674C219.645 94.596 221.672 99.662 222.685 105.018C223.843 111.243 222.685 117.033 218.776 122.099C216.171 125.284 213.276 128.469 210.091 130.93C202.419 137.009 194.313 142.655 186.351 148.59C177.376 155.104 168.257 161.473 159.427 168.132C146.398 178.12 132.502 186.95 118.605 195.78C114.697 198.241 110.354 199.833 106.012 201.57C103.985 202.439 101.379 202.584 99.0633 203.018Z" fill="#0062FD"/>
<mask id="mask0_1_1085" style="mask-type:alpha" maskUnits="userSpaceOnUse" x="0" y="-36" width="224" height="240">
<path d="M99.0633 203.018C93.8521 202.728 89.2199 200.991 85.4563 197.228C83.1402 194.912 80.9689 192.306 79.087 189.411C72.573 179.423 65.7695 169.724 57.5184 161.039C57.3737 160.894 57.3737 160.894 57.2289 160.749C42.0295 141.497 26.2511 122.678 12.2098 102.557C7.28812 95.464 3.95874 87.792 1.06362 79.541C-0.818203 74.04 -0.23918 68.684 3.0902 63.9075C5.11679 61.0124 7.57764 58.2621 10.328 56.0907C29.291 40.8913 46.8065 24.0997 64.7562 7.5975C77.0605 -3.5487 89.6542 -14.2606 102.248 -24.9726C105.288 -27.5782 108.617 -30.039 112.091 -32.0656C121.645 -37.8558 131.199 -37.2768 139.74 -30.1838C143.503 -27.1439 146.833 -23.525 149.728 -19.6166C161.308 -4.4172 171.731 11.5059 181.429 28.0081C187.22 37.8515 193.299 47.6949 199.379 57.2488C206.038 67.671 212.118 78.528 217.329 89.674C219.645 94.596 221.672 99.662 222.685 105.018C223.843 111.243 222.685 117.033 218.776 122.099C216.171 125.284 213.276 128.469 210.091 130.93C202.419 137.009 194.313 142.655 186.351 148.59C177.376 155.104 168.257 161.473 159.427 168.132C146.398 178.12 132.502 186.95 118.605 195.78C114.697 198.241 110.354 199.833 106.012 201.57C103.985 202.439 101.379 202.584 99.0633 203.018Z" fill="#55BBDA"/>
</mask>
<g mask="url(#mask0_1_1085)">
<path d="M236.292 212.572C234.41 211.993 232.963 210.545 231.66 208.953C229.054 205.768 227.462 202.005 226.159 198.241C222.974 188.832 221.237 178.988 220.079 169.145C219.211 161.473 218.632 153.656 217.763 145.984C217.763 145.405 217.618 144.971 217.329 143.668C216.171 145.405 215.592 146.418 214.868 147.432C206.617 160.315 197.642 172.619 186.496 183.331C182.443 187.24 177.955 190.858 173.323 194.043C170.573 195.925 167.243 197.372 163.914 198.241C156.531 200.268 150.307 197.228 146.978 190.424C144.661 185.792 143.793 180.726 143.793 175.659C143.793 169.724 144.227 163.934 144.517 157.999C144.517 157.275 144.661 156.551 144.806 154.959C143.648 156.407 142.924 157.275 142.201 158.144C136.266 166.105 129.896 173.777 122.803 180.726C118.026 185.358 113.105 189.7 107.314 193.03C103.985 195.056 100.511 196.504 96.7472 197.228C90.3779 198.241 85.0219 195.635 82.1268 189.845C80.1002 185.792 79.3765 181.305 79.087 176.817C78.3632 165.526 79.8107 154.38 81.403 143.234C81.9821 139.615 82.5611 135.996 82.7059 132.088C81.9821 133.101 81.2583 134.114 80.6793 135.127C74.0205 145.839 67.217 156.117 58.8211 165.526C55.2022 169.579 51.2938 173.343 47.0959 176.817C44.6351 178.844 41.5952 180.436 38.7001 181.449C32.4756 183.621 26.9748 181.594 23.3559 176.093C21.0399 172.619 20.0266 168.711 19.3028 164.802C17.8552 156.117 17.7105 147.432 18.579 138.891C19.4475 129.048 20.7503 119.06 21.7636 109.216C21.9084 108.058 22.0531 106.9 21.6189 105.452C20.8951 106.321 20.1713 107.19 19.4475 108.203C11.9202 118.481 3.66916 128.179 -6.02948 136.575C-9.64838 139.615 -13.5568 142.365 -17.4652 144.971C-18.6233 145.695 -20.0708 146.708 -21.6631 144.971C-21.2289 144.392 -20.9393 143.813 -20.3603 143.523C-13.8463 139.325 -8.20082 133.825 -2.84484 128.324C6.70903 118.481 15.1049 107.769 22.6322 96.333C23.6455 94.741 24.3692 92.859 24.8035 90.977C31.028 59.7096 39.2791 29.0214 51.8729 -0.364071C55.6365 -9.04937 59.6897 -17.4453 65.0456 -25.1173C67.217 -28.3019 69.6778 -31.197 72.2834 -33.9474C73.8757 -35.974 76.0471 -37.5663 78.5079 -36.4083C81.1135 -35.1054 81.2583 -32.3551 80.824 -30.039C79.5212 -23.3803 78.3632 -16.5767 76.3366 -10.0627C65.7694 25.4025 50.7148 58.8411 31.1728 90.253C29.1462 93.438 27.8434 96.767 27.2644 100.531C24.9483 114.283 22.7769 128.179 22.1979 142.22C21.9084 149.893 21.7636 157.565 23.5007 165.092C24.0797 167.553 24.9483 170.014 26.1063 172.185C28.8567 177.396 33.3441 179.133 38.5553 176.383C41.5952 174.935 44.6351 172.909 47.0959 170.448C52.1624 165.381 56.9393 160.025 61.4267 154.38C71.1254 141.931 79.087 128.324 86.4695 114.427C87.0485 113.269 87.6275 111.822 87.9171 110.519C94.1416 83.16 102.827 56.3802 111.223 29.6004C117.447 9.91364 123.817 -9.91797 131.778 -29.0257C133.371 -32.9341 135.252 -36.8425 137.279 -40.6062C137.858 -41.7642 138.726 -42.9223 139.885 -43.7908C141.622 -45.2384 143.938 -44.5146 144.372 -42.1985C144.661 -40.6062 144.661 -39.0139 144.661 -37.4215C143.938 -27.4334 141.477 -17.7348 139.161 -8.03607C129.028 34.9564 112.67 75.778 92.2597 114.862C90.9569 117.322 89.9437 119.928 89.5094 122.678C87.338 134.114 85.3115 145.405 83.5744 156.841C82.5611 163.934 82.1268 171.172 83.1401 178.265C83.5744 181.015 84.1534 183.765 85.1667 186.371C87.338 191.872 91.536 193.898 97.1814 192.451C100.077 191.727 102.972 190.424 105.433 188.832C109.631 185.937 113.684 182.897 117.447 179.567C128.449 169.579 137.424 157.999 145.675 145.839C146.399 144.826 146.833 143.523 147.122 142.365C154.071 106.755 164.204 72.014 176.073 37.7067C182.443 19.178 189.246 0.938728 197.208 -17.011C198.8 -20.4851 200.537 -23.9593 202.419 -27.2886C203.432 -29.1705 204.735 -31.0523 207.341 -30.3285C209.946 -29.6047 210.091 -27.2886 209.946 -25.2621C209.512 -18.7481 209.223 -12.2341 208.209 -5.86477C201.695 37.2725 188.378 78.238 168.112 116.888C163.48 125.863 157.979 134.259 153.057 143.089C152.334 144.537 151.465 145.984 151.175 147.432C149.583 156.841 148.136 166.25 148.859 175.804C149.149 179.278 149.728 182.897 150.886 186.371C153.202 193.03 157.979 195.201 164.638 192.74C167.533 191.727 170.428 190.279 172.889 188.398C177.521 184.779 182.008 181.015 186.206 176.817C198.076 164.658 207.775 150.906 216.316 136.141C217.184 134.548 217.474 132.956 217.474 131.219C217.329 112.98 221.382 95.609 228.041 78.817C229.488 75.343 231.37 71.869 233.397 68.684C234.41 66.947 236.002 65.5 237.739 64.342C240.635 62.46 243.819 63.618 244.543 66.947C245.122 69.698 245.267 72.738 244.977 75.488C244.253 83.305 242.082 90.977 239.477 98.359C235.279 110.808 229.633 122.534 223.409 134.114C222.685 135.417 221.961 137.154 221.961 138.602C222.685 158.578 223.988 178.409 228.909 197.807C229.488 200.412 230.357 203.018 231.515 205.334C232.528 207.65 234.41 209.966 236.292 212.572ZM205.314 -23.3803C193.444 -6.15427 153.926 114.862 154.36 131.074C163.769 118.77 182.587 75.488 191.707 44.7998C198.366 22.5074 203.288 -0.0745697 205.314 -23.3803ZM77.6394 -32.4998C77.3499 -32.6446 76.9156 -32.7894 76.6261 -32.9341C75.7576 -32.0656 74.5995 -31.4866 73.8757 -30.4733C71.7044 -27.7229 69.3883 -25.1173 67.6512 -22.0775C64.1771 -16.1425 60.8477 -10.2075 58.0974 -3.98297C47.8197 18.4542 40.4371 42.1942 34.5021 66.368C33.1993 71.435 32.1861 76.357 31.028 81.423C31.1728 81.568 31.4623 81.568 31.607 81.713C32.3308 80.554 33.0546 79.396 33.7784 78.238C47.0959 55.5117 58.0974 31.7717 67.0722 7.01853C71.1254 -4.12767 75.0338 -15.1292 77.0604 -26.8544C77.4946 -28.5914 77.4946 -30.618 77.6394 -32.4998ZM96.8919 93.727C98.9185 89.529 100.8 85.331 102.827 81.278C118.895 46.5368 131.199 10.4926 139.016 -26.9991C139.74 -30.1838 140.174 -33.3684 140.753 -36.553C133.805 -28.3019 101.09 69.408 96.8919 93.727ZM240.345 68.54C232.528 72.738 221.961 109.506 222.395 122.968C222.685 122.678 222.974 122.534 223.119 122.244C230.067 108.203 235.858 93.872 239.042 78.528C239.766 75.343 239.911 72.303 240.345 68.54Z" fill="black"/>
</g>
</g>
<defs>
<clipPath id="clip0_1_1085">
<rect width="224" height="240" fill="white" transform="translate(0 -36)"/>
</clipPath>
</defs>
</svg>
