<svg width="266" height="170" viewBox="0 0 266 170" fill="none" xmlns="http://www.w3.org/2000/svg">
<path fill-rule="evenodd" clip-rule="evenodd" d="M138.404 1.65688C137.732 2.46611 137.078 3.25267 136.359 3.97196C134.737 5.41402 133.127 6.86886 131.52 8.32198C127.46 11.9918 123.411 15.6511 119.2 19.0654C97.9105 35.7477 76.6207 52.4299 55.4899 69.1122L14.4992 101.523C13.8638 102 13.2281 102.477 12.7516 102.953C11.6394 103.907 10.3684 104.542 8.93847 103.271C7.66744 102.159 7.9852 100.57 8.77959 99.4579C9.73287 97.8692 11.0039 96.2804 12.2749 95.0093C13.0429 94.3112 13.8108 93.6096 14.5798 92.9072C19.0605 88.814 23.5755 84.6892 28.3217 81.028C62.6394 54.6542 97.1161 28.4393 132.864 3.97196C134.77 2.54206 136.836 1.27103 138.901 0C138.901 0 139.06 0.158879 139.537 0.317757C139.144 0.766463 138.771 1.21517 138.404 1.65688ZM263.78 34.7944C263.224 35.1121 262.667 35.4696 262.111 35.8271C261.555 36.1846 260.999 36.5421 260.443 36.8598C237.247 50.5234 214.368 64.6636 191.967 79.757C157.649 102.636 123.649 126.15 91.2376 151.57C85.2002 156.336 79.3217 161.103 73.4432 165.869C72.4899 166.664 71.6955 167.299 70.7422 167.935C69.4712 168.888 68.2002 169.364 66.9292 168.252C65.6581 167.14 65.9759 165.551 66.7703 164.439C67.7236 162.85 68.8357 161.262 70.2656 159.991L70.4559 159.816C74.3696 156.215 78.4369 152.473 82.6581 149.346C130.957 112.804 180.527 78.6449 233.434 49.2523C239.471 45.863 245.65 42.756 251.829 39.6491C254.917 38.0956 258.008 36.5421 261.079 34.9533C261.873 34.6355 262.667 34.3178 263.303 34C263.462 34.1589 263.621 34.4766 263.78 34.7944ZM158.761 13.5047C159.873 12.7103 160.826 11.757 161.78 10.8037C161.621 10.6449 161.462 10.486 160.985 10.3271C159.873 11.1215 158.761 11.9556 157.649 12.7897C156.537 13.6238 155.424 14.4579 154.312 15.2523C147.903 19.8738 141.488 24.4953 135.072 29.1185C104.429 51.1962 73.7336 73.3123 43.2563 95.6449C34.6849 101.848 26.5939 108.531 18.4717 115.24C15.152 117.982 11.8269 120.729 8.46189 123.449C6.07871 125.355 4.01329 127.579 1.94787 129.804C1.15348 130.598 0.359086 131.551 0.041329 132.664C-0.11755 133.458 0.200207 134.57 0.676843 135.047C1.15348 135.523 2.4245 135.682 3.06002 135.364C4.33104 134.729 5.44319 133.935 6.55534 132.981C10.396 129.829 14.1953 126.634 17.9904 123.444C24.7142 117.791 31.4252 112.149 38.331 106.766C55.186 93.6671 72.0937 80.7263 88.9934 67.7919L88.9947 67.7909C101.405 58.292 113.813 48.7956 126.191 39.243C137.152 30.6643 147.955 22.0859 158.758 13.5073L158.761 13.5047ZM159.555 34.9533C157.808 36.5421 156.06 38.1308 154.153 39.5607C148.862 43.6679 143.562 47.7752 138.26 51.8845L138.248 51.8935C120.787 65.4254 103.297 78.9791 85.9946 92.6262C75.7539 100.716 65.6453 108.939 55.5835 117.123C50.035 121.635 44.5008 126.137 38.9665 130.598C37.6955 131.71 36.4245 132.822 34.9946 133.617C34.2002 134.093 32.4525 134.093 31.9759 133.617C31.3404 132.981 31.1815 131.393 31.6581 130.598C32.2936 129.327 33.2469 128.056 34.3591 126.944C35.4534 125.941 36.5346 124.925 37.6178 123.907C40.3087 121.377 43.0119 118.837 45.9572 116.458C77.7329 91.3551 109.826 66.729 143.35 44.0093C146.996 41.5351 150.856 39.0608 154.579 36.6739C155.398 36.149 156.211 35.6279 157.013 35.1122C157.649 34.7944 158.284 34.4766 158.92 34C159.041 34.1821 159.139 34.3178 159.223 34.4336C159.358 34.6211 159.457 34.7569 159.555 34.9533ZM170.564 56.3132C170.861 55.9753 171.163 55.6324 171.471 55.2897C170.995 54.972 170.836 54.8131 170.836 54.8131C168.453 56.5607 166.069 58.3084 163.686 59.8972C137.153 77.5327 111.574 96.4393 86.3123 115.664C78.8452 121.224 71.537 126.944 64.2285 132.663C62.7986 133.775 61.5273 135.047 60.4151 136.318C59.4619 137.43 58.9852 138.86 60.0974 140.131C61.2095 141.561 62.6394 141.402 63.9105 140.607C65.6581 139.654 67.4058 138.542 68.9946 137.271C71.7749 135.047 74.5156 132.783 77.2563 130.519C79.9969 128.255 82.7376 125.991 85.5179 123.766C104.742 108.673 124.125 93.5794 143.509 78.6449L167.34 59.5794C168.462 58.7072 169.485 57.5418 170.564 56.3132Z" fill="black"/>
</svg>
