<svg
  id="Component_6_10"
  data-name="Component 6 – 10"
  xmlns="http://www.w3.org/2000/svg"
  xmlns:xlink="http://www.w3.org/1999/xlink"
  width="168.844"
  height="56.267"
  viewBox="0 0 168.844 56.267"
>
  <defs>
    <linearGradient
      id="linear-gradient"
      x1="0.505"
      y1="0.998"
      x2="0.495"
      y2="-0.002"
      gradientUnits="objectBoundingBox"
    >
      <stop offset="0" stop-color="#002395" />
      <stop offset="0.154" stop-color="#3c56ad" />
      <stop offset="0.322" stop-color="#7689c6" />
      <stop offset="0.485" stop-color="#a7b3da" />
      <stop offset="0.638" stop-color="#cdd4ea" />
      <stop offset="0.779" stop-color="#e8ebf5" />
      <stop offset="0.904" stop-color="#f9f9fc" />
      <stop offset="0.998" stop-color="#fff" />
    </linearGradient>
    <linearGradient
      id="linear-gradient-2"
      x1="0.862"
      y1="0.012"
      x2="0.129"
      y2="1"
      gradientUnits="objectBoundingBox"
    >
      <stop offset="0" stop-color="#002395" />
      <stop offset="0.215" stop-color="#4962b3" />
      <stop offset="0.426" stop-color="#8a9ace" />
      <stop offset="0.615" stop-color="#bcc5e3" />
      <stop offset="0.78" stop-color="#e0e4f2" />
      <stop offset="0.913" stop-color="#f6f8fb" />
      <stop offset="0.998" stop-color="#fff" />
    </linearGradient>
  </defs>
  <path
    id="Path_1"
    data-name="Path 1"
    d="M217.144,262.7V221.661a7.415,7.415,0,0,1,14.831,0V262.7a7.415,7.415,0,1,1-14.831,0Z"
    transform="translate(-201.185 -213.875)"
    fill="#0cc6de"
    fill-rule="evenodd"
  />
  <path
    id="Path_2"
    data-name="Path 2"
    d="M217.144,262.7V221.661a7.415,7.415,0,0,1,14.831,0V262.7a7.415,7.415,0,1,1-14.831,0Z"
    transform="translate(-201.185 -213.875)"
    fill-rule="evenodd"
    fill="url(#linear-gradient)"
    style="mix-blend-mode: multiply; isolation: isolate"
  />
  <path
    id="Path_3"
    data-name="Path 3"
    d="M389.568,257.695a5.991,5.991,0,0,1-4.2-1.3,4.815,4.815,0,0,1-1.543-3.344h3.005a1.957,1.957,0,0,0,.808,1.515,4.254,4.254,0,0,0,3.97.155,1.279,1.279,0,0,0,.651-1.121,1.229,1.229,0,0,0-.8-1.162,7.241,7.241,0,0,0-1.945-.561c-.764-.122-1.532-.283-2.3-.483a3.893,3.893,0,0,1-1.945-1.185,3.514,3.514,0,0,1-.8-2.43,3.8,3.8,0,0,1,1.474-3.015,5.87,5.87,0,0,1,3.9-1.24,6.455,6.455,0,0,1,2.442.429,4.09,4.09,0,0,1,1.644,1.136,5.544,5.544,0,0,1,.888,1.434,4.77,4.77,0,0,1,.353,1.489H392.2a2.106,2.106,0,0,0-.693-1.382,2.44,2.44,0,0,0-1.735-.574,2.937,2.937,0,0,0-1.723.431,1.39,1.39,0,0,0-.6,1.19,1.161,1.161,0,0,0,.8,1.07,7.607,7.607,0,0,0,1.943.546,19.718,19.718,0,0,1,2.3.509,3.961,3.961,0,0,1,1.945,1.24,3.564,3.564,0,0,1,.8,2.43,3.745,3.745,0,0,1-1.475,3.026A6.465,6.465,0,0,1,389.568,257.695Zm-13.081,0a6,6,0,0,1-4.2-1.3,4.776,4.776,0,0,1-1.537-3.344h3a1.955,1.955,0,0,0,.808,1.515,4.25,4.25,0,0,0,3.967.155,1.271,1.271,0,0,0,.656-1.121,1.233,1.233,0,0,0-.8-1.162,7.279,7.279,0,0,0-1.946-.561q-1.15-.183-2.3-.483a3.892,3.892,0,0,1-1.945-1.185,3.523,3.523,0,0,1-.8-2.43,3.806,3.806,0,0,1,1.477-3.015,5.861,5.861,0,0,1,3.9-1.24,6.432,6.432,0,0,1,2.44.429,4.093,4.093,0,0,1,1.645,1.136,5.622,5.622,0,0,1,.887,1.434,4.815,4.815,0,0,1,.352,1.489h-2.977a2.1,2.1,0,0,0-.69-1.382,2.437,2.437,0,0,0-1.735-.574,2.928,2.928,0,0,0-1.722.431,1.378,1.378,0,0,0-.6,1.19,1.165,1.165,0,0,0,.8,1.07,7.619,7.619,0,0,0,1.945.546,19.909,19.909,0,0,1,2.3.509,3.979,3.979,0,0,1,1.946,1.24,3.582,3.582,0,0,1,.8,2.43,3.747,3.747,0,0,1-1.474,3.026A6.481,6.481,0,0,1,376.487,257.695ZM362.08,246.052a3.521,3.521,0,0,0-2.429.86,3.8,3.8,0,0,0-1.2,2.3h7.2a3.748,3.748,0,0,0-1.15-2.3A3.456,3.456,0,0,0,362.08,246.052Zm6.63,5.455H358.4a4.089,4.089,0,0,0,1.177,2.573,3.952,3.952,0,0,0,4.541.428,2.911,2.911,0,0,0,1.227-1.407h3.133a6.319,6.319,0,0,1-2.336,3.327,6.58,6.58,0,0,1-4.032,1.267,6.372,6.372,0,0,1-4.9-2.011,7.783,7.783,0,0,1,.014-10.128,6.807,6.807,0,0,1,9.672-.039,7.125,7.125,0,0,1,1.838,5.026Zm-28.4-.89a7.138,7.138,0,0,1,1.9-5.049,6.342,6.342,0,0,1,4.856-2.049,6.176,6.176,0,0,1,6.422,5.223h-3.184a3.2,3.2,0,0,0-1.162-1.8,3.3,3.3,0,0,0-2.1-.681,3.223,3.223,0,0,0-2.635,1.215,5.455,5.455,0,0,0,0,6.277,3.24,3.24,0,0,0,2.635,1.2,3.316,3.316,0,0,0,2.1-.679,3.2,3.2,0,0,0,1.162-1.8h3.184a6.177,6.177,0,0,1-6.422,5.22,6.342,6.342,0,0,1-4.856-2.049A7.115,7.115,0,0,1,340.307,250.618Zm-14.9,0a7.134,7.134,0,0,1,1.9-5.049,6.335,6.335,0,0,1,4.854-2.049,6.182,6.182,0,0,1,4.452,1.58,6.26,6.26,0,0,1,1.972,3.643H335.4a3.2,3.2,0,0,0-1.164-1.8,3.307,3.307,0,0,0-2.1-.681,3.228,3.228,0,0,0-2.635,1.215,5.463,5.463,0,0,0,0,6.277,3.245,3.245,0,0,0,2.635,1.2,3.323,3.323,0,0,0,2.1-.679,3.2,3.2,0,0,0,1.164-1.8h3.186a6.272,6.272,0,0,1-1.972,3.64,6.183,6.183,0,0,1-4.452,1.58,6.335,6.335,0,0,1-4.854-2.049A7.111,7.111,0,0,1,325.4,250.618Zm-10.443,7.077a5.018,5.018,0,0,1-3.577-1.122,3.93,3.93,0,0,1-1.171-2.977q0-3.55,5.193-4.281l3.918-.549v-.209q0-2.477-2.9-2.48-2.533,0-2.871,2.011h-3.029a4.955,4.955,0,0,1,1.657-3.278,7.856,7.856,0,0,1,8.692.042,4.76,4.76,0,0,1,1.477,3.732v6.236a6.636,6.636,0,0,0,.392,2.561h-2.95c-.019,0-.04-.067-.068-.2s-.051-.344-.076-.64-.04-.608-.04-.94Q318.222,257.693,314.961,257.695Zm4.363-6.683-3.6.548q-2.533.391-2.533,1.932,0,1.775,2.4,1.777a3.741,3.741,0,0,0,2.766-.966,3.3,3.3,0,0,0,.969-2.43Z"
    transform="translate(-262.935 -233.298)"
    fill="#002395"
    fill-rule="evenodd"
  />
  <path
    id="Path_4"
    data-name="Path 4"
    d="M170.212,259.337,186.117,217.9a7.415,7.415,0,0,1,13.844,5.317l-15.9,41.433a7.416,7.416,0,0,1-13.847-5.314Z"
    transform="translate(-169.718 -213.144)"
    fill="#0cc6de"
    fill-rule="evenodd"
  />
  <g id="Group_1" data-name="Group 1" transform="translate(146.402 34.872)">
    <path
      id="Path_5"
      data-name="Path 5"
      d="M611.95,316.779c.046,0,.148.01.306.018v3.646q-.337-.037-.6-.05c-.175-.008-.316-.012-.425-.012a2.952,2.952,0,0,0-2.885,1.4,5.445,5.445,0,0,0-.412,2.423v6.506h-3.152V317.1h2.964v2.373a7.528,7.528,0,0,1,1.436-1.861,3.908,3.908,0,0,1,2.6-.837C611.848,316.773,611.9,316.775,611.95,316.779Z"
      transform="translate(-604.784 -316.773)"
      fill="#0cc6de"
    />
  </g>
  <path
    id="Path_6"
    data-name="Path 6"
    d="M360.318,316.693a4.28,4.28,0,0,1,2.1,1.977v-1.964h3.477v12.934a7.243,7.243,0,0,1-.888,3.978q-1.525,2.3-5.854,2.3a7.978,7.978,0,0,1-4.265-1.026,3.784,3.784,0,0,1-1.826-3.064h3.878a1.6,1.6,0,0,0,.488.9,3.011,3.011,0,0,0,1.939.488,2.6,2.6,0,0,0,2.577-1.288,6.527,6.527,0,0,0,.425-2.777v-.876a4.346,4.346,0,0,1-1.1,1.313,4.424,4.424,0,0,1-2.765.814,5.23,5.23,0,0,1-4.2-1.846,7.458,7.458,0,0,1-1.569-5,8.431,8.431,0,0,1,1.512-5.11,4.992,4.992,0,0,1,4.285-2.07A4.7,4.7,0,0,1,360.318,316.693Zm1.214,9.775a4.386,4.386,0,0,0,.859-3.009,4.619,4.619,0,0,0-.816-2.952,2.661,2.661,0,0,0-2.186-1.013,2.576,2.576,0,0,0-2.578,1.763,6.282,6.282,0,0,0-.374,2.314,5.294,5.294,0,0,0,.4,2.114,2.6,2.6,0,0,0,2.591,1.726A2.738,2.738,0,0,0,361.532,326.468Z"
    transform="translate(-291.148 -281.641)"
    fill="#0cc6de"
  />
  <path
    id="Path_7"
    data-name="Path 7"
    d="M447.073,319.128a7.267,7.267,0,0,1-1.668-5.178,8.175,8.175,0,0,1,1.63-5.491,5.291,5.291,0,0,1,4.2-1.889,4.4,4.4,0,0,1,2.72.813,5.255,5.255,0,0,1,1.159,1.313v-7.1h3.527v19h-3.414v-2.014a5.727,5.727,0,0,1-1.233,1.4,4.556,4.556,0,0,1-2.845.913A5.391,5.391,0,0,1,447.073,319.128Zm2.736-2.564a2.536,2.536,0,0,0,2.357,1.213,2.68,2.68,0,0,0,2.692-1.839,6.91,6.91,0,0,0,.379-2.477,3.931,3.931,0,0,0-1.275-3.34,2.929,2.929,0,0,0-1.795-.563,2.61,2.61,0,0,0-2.295,1.151,6.025,6.025,0,0,0-.063,5.854Z"
    transform="translate(-352.635 -271.828)"
    fill="#0cc6de"
  />
  <path
    id="Path_8"
    data-name="Path 8"
    d="M322.78,328.125v-6.236a4.76,4.76,0,0,0-1.477-3.732,7.856,7.856,0,0,0-8.692-.042,4.955,4.955,0,0,0-1.657,3.278h3.029q.34-2.01,2.87-2.011,2.9,0,2.9,2.48v.209l-3.919.549q-5.2.729-5.193,4.281a3.931,3.931,0,0,0,1.171,2.977A5.018,5.018,0,0,0,315.392,331q3.26,0,4.646-2.089c0,.332.013.644.04.94s.053.508.076.64.049.2.068.2h2.95A6.635,6.635,0,0,1,322.78,328.125Zm-3.026-2.948a3.3,3.3,0,0,1-.969,2.43,3.741,3.741,0,0,1-2.766.966q-2.4,0-2.4-1.777,0-1.54,2.533-1.932l3.6-.549Z"
    transform="translate(-263.221 -281.935)"
    fill="#0cc6de"
    fill-rule="evenodd"
  />
  <path
    id="Path_9"
    data-name="Path 9"
    d="M645.073,323.847a7.124,7.124,0,0,0-1.838-5.026,6.807,6.807,0,0,0-9.672.039,7.783,7.783,0,0,0-.014,10.128,6.372,6.372,0,0,0,4.9,2.011,6.581,6.581,0,0,0,4.032-1.267,6.321,6.321,0,0,0,2.336-3.327h-3.133a2.914,2.914,0,0,1-1.227,1.407,3.953,3.953,0,0,1-4.541-.428,4.09,4.09,0,0,1-1.176-2.573h10.314Zm-10.284-1.333a3.8,3.8,0,0,1,1.2-2.3,3.521,3.521,0,0,1,2.429-.86,3.456,3.456,0,0,1,2.426.86,3.747,3.747,0,0,1,1.15,2.3Z"
    transform="translate(-476.229 -281.935)"
    fill="#0cc6de"
    fill-rule="evenodd"
  />
  <path
    id="Path_10"
    data-name="Path 10"
    d="M412.4,323.847a7.124,7.124,0,0,0-1.838-5.026,6.807,6.807,0,0,0-9.672.039,7.783,7.783,0,0,0-.014,10.128,6.372,6.372,0,0,0,4.9,2.011,6.581,6.581,0,0,0,4.032-1.267,6.321,6.321,0,0,0,2.336-3.327h-3.133a2.914,2.914,0,0,1-1.227,1.407,3.953,3.953,0,0,1-4.542-.428,4.089,4.089,0,0,1-1.176-2.573h10.314Zm-10.284-1.333a3.8,3.8,0,0,1,1.2-2.3,3.522,3.522,0,0,1,2.429-.86,3.456,3.456,0,0,1,2.426.86,3.747,3.747,0,0,1,1.149,2.3Z"
    transform="translate(-321.853 -281.935)"
    fill="#0cc6de"
    fill-rule="evenodd"
  />
  <path
    id="Path_11"
    data-name="Path 11"
    d="M513.78,323.922a7.135,7.135,0,0,1,1.9-5.048,6.336,6.336,0,0,1,4.855-2.049,6.182,6.182,0,0,1,4.452,1.58,6.259,6.259,0,0,1,1.972,3.643h-3.185a3.2,3.2,0,0,0-1.164-1.8,3.306,3.306,0,0,0-2.1-.681,3.228,3.228,0,0,0-2.635,1.215,5.462,5.462,0,0,0,0,6.276,3.245,3.245,0,0,0,2.635,1.2,3.324,3.324,0,0,0,2.1-.679,3.2,3.2,0,0,0,1.164-1.8h3.185a6.269,6.269,0,0,1-1.972,3.64,6.182,6.182,0,0,1-4.452,1.58,6.335,6.335,0,0,1-4.855-2.05A7.111,7.111,0,0,1,513.78,323.922Z"
    transform="translate(-398.001 -281.935)"
    fill="#0cc6de"
    fill-rule="evenodd"
  />
  <path
    id="Path_12"
    data-name="Path 12"
    d="M572.157,328.125v-6.236a4.758,4.758,0,0,0-1.477-3.732,7.856,7.856,0,0,0-8.692-.042,4.953,4.953,0,0,0-1.657,3.278h3.029q.34-2.01,2.871-2.011,2.9,0,2.9,2.48v.209l-3.918.549q-5.2.729-5.193,4.281a3.93,3.93,0,0,0,1.171,2.977A5.019,5.019,0,0,0,564.769,331q3.26,0,4.646-2.089c0,.332.013.644.04.94s.053.508.076.64.049.2.068.2h2.95A6.626,6.626,0,0,1,572.157,328.125Zm-3.026-2.948a3.3,3.3,0,0,1-.969,2.43,3.742,3.742,0,0,1-2.767.966q-2.4,0-2.4-1.777,0-1.54,2.533-1.932l3.6-.549Z"
    transform="translate(-428.681 -281.935)"
    fill="#0cc6de"
    fill-rule="evenodd"
  />
  <path
    id="Path_13"
    data-name="Path 13"
    d="M170.212,259.337,186.117,217.9a7.415,7.415,0,0,1,13.844,5.317l-15.9,41.433a7.416,7.416,0,0,1-13.847-5.314Z"
    transform="translate(-169.718 -213.144)"
    fill-rule="evenodd"
    fill="url(#linear-gradient-2)"
    style="mix-blend-mode: multiply; isolation: isolate"
  />
</svg>
